PathFileType	4	(X/Y/Z)	C:\Users\WrightLab\Desktop\Jo\P5V17.trc
DataRate	CameraRate	NumFrames	NumMarkers	Units	OrigDataRate	OrigDataStartFrame	OrigNumFrames
100.00	100.00	       10	19	mm	100.00	238	       633
Frame#	Time	Headset_Front			Headset_Back			Headset_Left			Headset_Right			Left_Shoulder			Right_Shoulder			Sternum			C7			Left Elbow			Right Elbow			Left Wrist			Right Wrist			Left ASIS			Right ASIS			S2			Left Knee			Right Knee			Left Ankle			Right Ankle			
		X1	Y1	Z1	X2	Y2	Z2	X3	Y3	Z3	X4	Y4	Z4	X5	Y5	Z5	X6	Y6	Z6	X7	Y7	Z7	X8	Y8	Z8	X9	Y9	Z9	X10	Y10	Z10	X11	Y11	Z11	X12	Y12	Z12	X13	Y13	Z13	X14	Y14	Z14	X15	Y15	Z15	X16	Y16	Z16	X17	Y17	Z17	X18	Y18	Z18	X19	Y19	Z19	

238	2.370	-178.12883	1513.22168	134.70395	-301.40897	1600.19263	124.20588							-181.83838	1452.25122	-225.42188				-282.79303	1308.76001	9.53760	-412.72241	1500.62012	-157.26700	-172.89758	1167.58008	-277.36203	-639.53113	1230.65063	71.68291	-76.94706	1149.84814	-82.01910	-481.59460	1151.91516	227.49789	-232.48073	897.19366	-55.03916	-429.99307	961.82013	142.34427	-509.33508	959.97400	-194.50923	-346.86850	465.37518	-97.38570	-407.22922	541.03546	223.42862	-529.82239	102.23363	-296.43179	-375.36664	127.22453	309.90765	
239	2.380	-173.06279	1512.35901	142.48376	-297.10907	1598.97559	133.05316							-179.22148	1453.11182	-219.70845				-276.19998	1308.97327	18.53540	-409.97644	1499.38440	-147.64063	-170.53369	1167.37964	-272.50131	-633.69501	1228.28210	81.81725	-72.66684	1150.24756	-79.00839	-475.37250	1151.23022	237.21222	-227.27643	896.86371	-49.28674	-421.57104	960.26648	151.54156	-506.09036	958.88763	-185.17174	-345.49692	464.92630	-92.73749	-394.92981	539.20673	230.11078	-530.59393	104.00986	-295.59119	-367.22986	123.56944	311.51172	
240	2.390	-168.53258	1511.51563	150.40919	-292.03867	1597.93774	140.90556							-176.84326	1452.44580	-212.15237	-464.89313	1466.50195	94.45006	-270.37390	1308.06567	27.15724	-406.82782	1498.13538	-138.25792	-168.34726	1167.50378	-266.67419	-628.32043	1226.77344	91.84884	-68.25879	1150.49255	-73.69923	-468.32047	1149.86169	246.58723	-222.08971	896.34552	-43.09269	-412.80762	958.70435	161.24922	-501.92075	957.64948	-172.63219	-343.62192	464.07669	-87.74286	-381.98474	538.05573	237.32899	-529.67029	106.21313	-294.39063	-359.48825	119.83829	312.12518	
241	2.400	-163.35847	1510.74255	157.90450	-287.86121	1597.24158	149.48732							-174.97072	1452.05188	-205.65256	-461.30765	1464.44006	102.86020	-266.16699	1306.54456	34.00694	-404.41583	1496.48291	-128.83759	-165.73535	1167.38831	-261.00085	-622.26770	1225.00659	103.61849	-63.61559	1150.97571	-69.31239	-461.72131	1148.46375	256.21341	-216.51541	895.60632	-37.11211	-403.43768	957.17950	171.55232	-498.61090	956.39624	-162.67181	-341.72049	463.19678	-82.63077	-371.29764	535.80811	244.96298	-529.64044	107.86536	-292.63702	-354.30322	116.65895	310.34106	
242	2.410	-158.45665	1509.96338	165.24794	-283.31998	1596.17834	157.71379							-172.87300	1451.96814	-197.31445	-455.71371	1462.70837	112.02476	-260.10126	1306.44324	41.94245	-401.34149	1495.05627	-119.16937	-163.21104	1167.86938	-254.39661	-616.69312	1223.04028	114.10590	-58.93570	1151.29089	-64.50191	-455.16818	1147.92908	266.05832	-210.29219	895.27771	-29.55033	-393.57257	955.62915	181.06519	-494.86453	955.27478	-150.72479	-339.98569	462.22382	-76.62508	-356.84833	534.22894	250.84146	-530.37695	110.54313	-291.79706	-350.31830	112.81165	307.14532	
243	2.420	-153.62112	1509.15002	172.32420	-278.50327	1594.88000	165.25035							-171.08916	1450.92395	-190.67328	-450.50751	1461.54871	122.88379	-254.34099	1305.59766	50.19373	-399.14053	1493.28003	-109.70086	-160.92744	1167.38940	-247.43344	-611.00116	1221.09595	123.62997	-54.06968	1151.61658	-60.01810	-448.17972	1146.92725	275.14273	-204.17737	894.35773	-22.37085	-384.59808	954.88013	192.16919	-491.02103	953.62793	-137.96725	-338.14215	462.02023	-70.85821	-344.09586	532.75214	258.15729	-529.55511	112.02421	-289.45792	-349.63602	109.89071	301.55582	
244	2.430	-148.52655	1508.48328	179.32582	-273.52161	1593.62817	173.01305							-169.26595	1450.91907	-183.80005	-445.49133	1459.51172	132.25398	-247.74606	1305.51855	58.94766	-397.08206	1491.38135	-100.21075	-158.18265	1167.42126	-242.01733	-605.74512	1219.21838	133.89888	-49.07272	1151.80994	-54.15962	-441.75290	1146.06763	284.90134	-197.53772	894.29315	-14.70200	-374.85349	953.44910	201.74699	-486.88541	951.97675	-125.19313	-337.48196	462.13040	-65.09523	-332.28998	530.75214	265.28735	-528.61823	115.22343	-287.14737	-350.10437	107.51044	299.17773	
245	2.440	-144.08994	1508.22534	186.27083	-269.29254	1593.86816	180.85779							-167.20390	1450.91833	-177.22234	-440.24805	1457.99036	141.84264	-242.24442	1306.12061	66.89832	-394.56885	1490.00586	-90.36808	-154.97070	1166.89990	-236.22762	-599.41406	1216.66772	145.91881	-44.46755	1153.13953	-49.91392	-434.51727	1144.66858	294.37823	-191.00964	894.75519	-7.15310	-364.32239	952.67841	212.38824	-482.43137	950.21063	-112.52030	-336.87796	461.51465	-58.63910	-320.96423	528.55975	271.72028	-527.95612	118.77579	-284.16815	-347.47006	109.23745	301.52350	
246	2.450				-264.04379	1593.53674	188.22025							-165.93886	1451.92859	-171.55789	-435.43726	1456.42297	151.28497	-236.41447	1307.50391	75.54678	-392.79352	1489.46729	-81.55443	-152.88565	1167.78101	-230.00970	-593.61957	1215.08838	156.61734	-39.44292	1154.01709	-45.44815	-427.16113	1144.20837	304.47452	-183.45117	895.55951	1.79432	-353.94016	952.96307	222.13353	-477.36469	948.96741	-99.78378	-335.39288	462.63315	-51.19479	-310.04373	527.63403	276.99493	-526.61713	122.65124	-281.20850	-346.40167	109.81098	303.05881	
247	2.460	-133.54176	1508.79370	199.19963	-258.69891	1594.92944	196.17081							-165.07085	1453.54749	-165.06702	-430.31827	1456.61731	160.84685	-231.03760	1309.14087	82.60845	-390.41800	1489.25183	-72.54668	-149.90627	1169.07190	-224.29199	-587.04120	1213.85706	167.83519	-34.09881	1154.96741	-40.17279	-420.36423	1143.69690	314.21878	-176.39053	897.59125	10.37344	-343.32932	954.00104	232.25940	-471.89902	947.99884	-87.65868	-334.14902	464.49414	-43.48177	-300.71448	529.49353	283.73538	-525.54736	127.05518	-277.16861	-346.41602	110.20495	304.93280	
